<?xml version="1.0" encoding="UTF-8" standalone="no"?>
<!-- Created with Inkscape (http://www.inkscape.org/) -->

<svg
   xmlns:dc="http://purl.org/dc/elements/1.1/"
   xmlns:cc="http://creativecommons.org/ns#"
   xmlns:rdf="http://www.w3.org/1999/02/22-rdf-syntax-ns#"
   xmlns:svg="http://www.w3.org/2000/svg"
   xmlns="http://www.w3.org/2000/svg"
   xmlns:sodipodi="http://sodipodi.sourceforge.net/DTD/sodipodi-0.dtd"
   xmlns:inkscape="http://www.inkscape.org/namespaces/inkscape"
   width="204.3938"
   height="30.032154"
   viewBox="0 0 204.3938 30.032155"
   id="svg5585"
   version="1.1"
   inkscape:version="0.91 r13725"
   sodipodi:docname="logo_small.svg"
   inkscape:export-filename="/home/wallento/dev/lc-help/img/logo_small.png"
   inkscape:export-xdpi="89.921165"
   inkscape:export-ydpi="89.921165">
  <defs
     id="defs5587" />
  <sodipodi:namedview
     id="base"
     pagecolor="#ffffff"
     bordercolor="#666666"
     borderopacity="1.0"
     inkscape:pageopacity="0.0"
     inkscape:pageshadow="2"
     inkscape:zoom="4.5999997"
     inkscape:cx="69.416209"
     inkscape:cy="-6.8653562"
     inkscape:document-units="px"
     inkscape:current-layer="layer1"
     showgrid="true"
     units="px"
     inkscape:window-width="1920"
     inkscape:window-height="1031"
     inkscape:window-x="0"
     inkscape:window-y="25"
     inkscape:window-maximized="1"
     showguides="false"
     inkscape:snap-bbox="true"
     inkscape:bbox-paths="true"
     inkscape:bbox-nodes="true"
     inkscape:object-nodes="true"
     fit-margin-top="0"
     fit-margin-left="0"
     fit-margin-right="0"
     fit-margin-bottom="0">
    <inkscape:grid
       type="xygrid"
       id="grid4808"
       originx="-1.7891211e-05"
       originy="-0.10949057" />
  </sodipodi:namedview>
  <metadata
     id="metadata5590">
    <rdf:RDF>
      <cc:Work
         rdf:about="">
        <dc:format>image/svg+xml</dc:format>
        <dc:type
           rdf:resource="http://purl.org/dc/dcmitype/StillImage" />
        <dc:title />
      </cc:Work>
    </rdf:RDF>
  </metadata>
  <g
     inkscape:label="Ebene 1"
     inkscape:groupmode="layer"
     id="layer1"
     transform="translate(-1.789635e-5,-1022.2206)">
    <g
       id="g13543"
       transform="matrix(0.92472414,0,0,0.92479667,-0.89369738,76.155216)"
       inkscape:export-xdpi="89.921165"
       inkscape:export-ydpi="89.921165">
      <circle
         r="15.697946"
         cy="1039.2169"
         cx="17.185169"
         inkscape:export-ydpi="28.965515"
         inkscape:export-xdpi="28.965515"
         inkscape:export-filename="/home/philipp/workspace/librecores/web/img/logo_small.png"
         id="circle4280-7"
         style="fill:none;fill-opacity:1;stroke:#3fb0ac;stroke-width:1.04151344;stroke-opacity:1" />
      <rect
         style="fill:#3fb0ac;fill-opacity:1;stroke:none"
         id="rect4282-7"
         width="4.6726856"
         height="4.9636602"
         x="383.94537"
         y="1109.5609"
         transform="matrix(0.99999659,-0.00261225,-0.33984647,0.94048093,0,0)" />
      <rect
         y="1110.0464"
         x="381.505"
         height="4.9490666"
         width="4.6881394"
         id="rect4284-4"
         style="fill:#3fb0ac;fill-opacity:1;stroke:none"
         transform="matrix(0.999932,-0.01166134,-0.3322461,0.94319273,0,0)" />
      <rect
         style="fill:#3fb0ac;fill-opacity:1;stroke:none"
         id="rect4286-5"
         width="4.7003365"
         height="4.9374847"
         x="369.13632"
         y="1104.0361"
         transform="matrix(0.99982397,-0.01876248,-0.32619874,0.94530121,0,0)" />
      <rect
         y="1097.4524"
         x="378.79803"
         height="4.9544282"
         width="4.6824727"
         id="rect4288-7"
         style="fill:#3fb0ac;fill-opacity:1;stroke:none"
         transform="matrix(0.99996514,-0.00834998,-0.33504095,0.94220357,0,0)" />
      <rect
         y="1096.9412"
         x="398.33224"
         height="4.9678383"
         width="4.6682439"
         id="rect4290-0"
         style="fill:#3fb0ac;fill-opacity:1;stroke:none"
         transform="matrix(1,0,-0.34201885,0.93969309,0,0)" />
      <rect
         y="1103.1509"
         x="398.33228"
         height="4.9678383"
         width="4.6682439"
         id="rect4292-5"
         style="fill:#3fb0ac;fill-opacity:1;stroke:none"
         transform="matrix(1,0,-0.34201885,0.93969309,0,0)" />
      <rect
         style="fill:#3fb0ac;fill-opacity:1;stroke:none"
         id="rect4294-8"
         width="4.6682439"
         height="4.9678383"
         x="398.33224"
         y="1109.3607"
         transform="matrix(1,0,-0.34201885,0.93969309,0,0)" />
      <rect
         y="1109.3607"
         x="404.16757"
         height="4.9678383"
         width="4.6682439"
         id="rect4296-9"
         style="fill:#3fb0ac;fill-opacity:1;stroke:none"
         transform="matrix(1,0,-0.34201885,0.93969309,0,0)" />
      <rect
         transform="matrix(1,0,-0.34201885,0.93969309,0,0)"
         style="fill:#3fb0ac;fill-opacity:1;stroke:none"
         id="rect4298-3"
         width="4.6682439"
         height="4.9678383"
         x="404.06735"
         y="1096.9412" />
    </g>
    <text
       inkscape:export-ydpi="89.921165"
       inkscape:export-xdpi="89.921165"
       inkscape:export-filename="/home/philipp/src/librecores-web/designelements/logo_options_v3.png"
       sodipodi:linespacing="125%"
       id="text4276"
       y="1046.316"
       x="37.547955"
       style="font-style:normal;font-variant:normal;font-weight:normal;font-stretch:normal;font-size:28.59723473px;line-height:125%;font-family:Arial;-inkscape-font-specification:Arial;letter-spacing:0px;word-spacing:0px;fill:#666666;fill-opacity:1;stroke:none"
       xml:space="preserve"
       transform="scale(0.99996079,1.0000392)"><tspan
         style="font-style:normal;font-variant:normal;font-weight:normal;font-stretch:normal;font-size:25px;font-family:'Open Sans';-inkscape-font-specification:'Open Sans';fill:#666666;fill-opacity:1"
         y="1046.316"
         x="37.547955"
         id="tspan4278"
         sodipodi:role="line">LibreCores</tspan></text>
    <g
       id="g4789"
       transform="matrix(0.23207958,0,0,0.23209779,110.62169,805.82725)"
       inkscape:export-xdpi="89.921165"
       inkscape:export-ydpi="89.921165">
      <g
         id="g4"
         transform="matrix(0.59711012,0,0,0.59711012,-1.2820303,612.15403)">
        <path
           style="fill:#e62739;fill-opacity:1"
           id="path6"
           d="m 577.13,540.39 c -0.6771,0.015 -1.3481,0.044 -2.0312,0.094 l -151.03,11.062 c -21.862,1.6007 -38.226,20.579 -36.625,42.438 l 6.25,85.469 c 1.0931,14.928 10.283,27.294 22.969,33.125 l 10.813,5.75 c 3.2117,1.9868 6.7441,3.4683 10.5,4.4062 l 1.5624,21.625 9.4376,8.5625 c 0,0 27.906,-21.331 39.875,-30.469 l 110.78,-3.8126 c 20.565,-0.7076 36.583,-17.841 35.875,-38.406 l -2.9688,-85.656 c -0.3164,-9.1984 -3.8975,-17.465 -9.625,-23.75 l -0.125,-0.125 c -1.0543,-1.146 -9.2408,-10.481 -14.031,-15.688 l -0.094,-0.094 c -7.4927,-9.1453 -18.942,-14.815 -31.531,-14.531 z m 0.125,4.9688 c 18.41,-0.4229 33.952,13.542 35.312,32.125 l 6.25,85.5 c 1.4046,19.183 -12.846,35.658 -32.031,37.062 l -110.56,8.0937 -0.7813,0.063 -0.625,0.5 -31,25.625 -1.7187,-23.688 -6.3438,0.4688 c -19.186,1.4047 -35.658,-12.814 -37.062,-32 l -6.25,-85.5 c -1.4048,-19.186 12.817,-35.689 32,-37.094 l 151.03,-11.062 c 0.5994,-0.044 1.1873,-0.08 1.7812,-0.094 z"
           inkscape:connector-curvature="0" />
      </g>
      <text
         transform="matrix(0.99626277,-0.08637409,0.08637409,0.99626277,0,0)"
         sodipodi:linespacing="125%"
         id="text4140"
         y="1034.4644"
         x="155.69518"
         style="font-style:normal;font-weight:normal;font-size:53.73991013px;line-height:125%;font-family:sans-serif;letter-spacing:0px;word-spacing:0px;fill:#000000;fill-opacity:1;stroke:none;stroke-width:1px;stroke-linecap:butt;stroke-linejoin:miter;stroke-opacity:1"
         xml:space="preserve"><tspan
           style="font-style:normal;font-variant:normal;font-weight:normal;font-stretch:normal;font-size:68.66766357px;font-family:'Ubuntu Condensed';-inkscape-font-specification:'Ubuntu Condensed, ';fill:#3fb0ac;fill-opacity:1"
           y="1034.4644"
           x="155.69518"
           id="tspan4142"
           sodipodi:role="line">Help</tspan></text>
    </g>
  </g>
</svg>
